<svg xmlns="http://www.w3.org/2000/svg" xmlns:xlink="http://www.w3.org/1999/xlink" width="500" zoomAndPan="magnify" viewBox="0 0 375 374.999991" height="500" preserveAspectRatio="xMidYMid meet" version="1.0"><defs><g/></defs><g fill="#ffffff" fill-opacity="1"><g transform="translate(66.336345, 167.734937)"><g><path d="M 31.03125 -17.390625 C 29.203125 -17.390625 27.78125 -18.828125 27.78125 -20.640625 L 27.78125 -29.59375 L 29.734375 -29.59375 C 29.734375 -26.609375 29.859375 -24.203125 31.671875 -20.765625 L 42.515625 0 L 68.671875 0 L 68.671875 -17.390625 L 64.71875 -17.390625 C 62.953125 -17.390625 61.46875 -18.828125 61.46875 -20.640625 L 61.46875 -24.796875 C 61.46875 -26.609375 62.953125 -28.046875 64.71875 -28.046875 L 68.671875 -28.046875 L 68.671875 -45.4375 L 37.96875 -45.4375 L 37.96875 -28.046875 L 39.265625 -28.046875 C 41.078125 -28.046875 42.515625 -26.609375 42.515625 -24.796875 L 42.515625 -15.84375 L 40.765625 -15.84375 C 40.765625 -18.828125 40.5625 -21.421875 38.8125 -24.671875 L 27.78125 -45.4375 L 1.625 -45.4375 L 1.625 -28.046875 L 5.578125 -28.046875 C 7.40625 -28.046875 8.828125 -26.609375 8.828125 -24.796875 L 8.828125 -20.640625 C 8.828125 -18.828125 7.40625 -17.390625 5.578125 -17.390625 L 1.625 -17.390625 L 1.625 0 L 32.328125 0 L 32.328125 -17.390625 Z M 31.03125 -17.390625 "/></g></g></g><g fill="#ffffff" fill-opacity="1"><g transform="translate(136.618725, 167.734937)"><g><path d="M 30.703125 -17.390625 C 28.890625 -17.390625 27.453125 -18.828125 27.453125 -20.640625 L 27.453125 -24.796875 C 27.453125 -26.609375 28.890625 -28.046875 30.703125 -28.046875 L 34.328125 -28.046875 L 34.328125 -45.4375 L 1.625 -45.4375 L 1.625 -28.046875 L 5.25 -28.046875 C 7.078125 -28.046875 8.5 -26.609375 8.5 -24.796875 L 8.5 -20.640625 C 8.5 -18.828125 7.078125 -17.390625 5.25 -17.390625 L 1.625 -17.390625 L 1.625 0 L 34.328125 0 L 34.328125 -17.390625 Z M 30.703125 -17.390625 "/></g></g></g><g fill="#ffffff" fill-opacity="1"><g transform="translate(172.571111, 167.734937)"><g><path d="M 32.1875 0 L 32.1875 -17.390625 L 31.03125 -17.390625 C 29.265625 -17.390625 27.78125 -18.828125 27.78125 -20.640625 L 27.78125 -21.421875 C 27.78125 -24.078125 27.90625 -26.15625 27.390625 -27.90625 L 28.6875 -28.296875 C 29.265625 -26.421875 29.796875 -24.921875 30.953125 -22.0625 L 34.40625 -13.828125 L 38.234375 -13.765625 L 41.671875 -22.0625 C 42.515625 -24.078125 43.484375 -26.359375 44.078125 -28.296875 L 45.375 -27.90625 C 44.84375 -26.15625 44.921875 -24.078125 44.921875 -21.421875 L 44.921875 -20.640625 C 44.921875 -18.828125 43.421875 -17.390625 41.671875 -17.390625 L 40.5625 -17.390625 L 40.5625 0 L 71 0 L 71 -17.390625 L 67.046875 -17.390625 C 65.296875 -17.390625 63.796875 -18.828125 63.796875 -20.640625 L 63.796875 -24.796875 C 63.796875 -26.609375 65.296875 -28.046875 67.046875 -28.046875 L 71 -28.046875 L 71 -45.4375 L 41.921875 -45.4375 L 38.09375 -33.875 C 37.328125 -31.484375 37.125 -28.109375 37.125 -25.96875 L 35.5625 -25.96875 C 35.5625 -28.109375 35.375 -31.484375 34.59375 -33.875 L 30.765625 -45.4375 L 1.625 -45.4375 L 1.625 -28.046875 L 5.578125 -28.046875 C 7.40625 -28.046875 8.828125 -26.609375 8.828125 -24.796875 L 8.828125 -20.640625 C 8.828125 -18.828125 7.40625 -17.390625 5.578125 -17.390625 L 1.625 -17.390625 L 1.625 0 Z M 32.1875 0 "/></g></g></g><g fill="#ffffff" fill-opacity="1"><g transform="translate(245.189747, 167.734937)"><g><path d="M 41.546875 -20.640625 C 41.546875 -18.828125 40.109375 -17.390625 38.296875 -17.390625 L 27.71875 -17.390625 L 27.71875 -20.90625 L 31.671875 -20.90625 C 33.234375 -20.90625 33.6875 -20.0625 33.6875 -18.6875 L 33.6875 -18.5 L 37 -18.5 L 37 -26.875 L 33.6875 -26.875 L 33.6875 -26.671875 C 33.6875 -25.3125 33.234375 -24.40625 31.671875 -24.40625 L 27.71875 -24.40625 L 27.71875 -28.046875 L 36.859375 -28.046875 C 38.6875 -28.046875 40.109375 -26.609375 40.109375 -24.796875 L 40.109375 -24.078125 L 58.9375 -24.078125 L 58.9375 -45.4375 L 40.109375 -45.4375 L 40.109375 -31.734375 L 38.8125 -31.734375 C 38.8125 -40.3125 34.65625 -45.4375 25.1875 -45.4375 L 1.953125 -45.4375 L 1.953125 -28.046875 L 5.578125 -28.046875 C 7.328125 -28.046875 8.828125 -26.609375 8.828125 -24.796875 L 8.828125 -20.640625 C 8.828125 -18.828125 7.328125 -17.390625 5.578125 -17.390625 L 1.625 -17.390625 L 1.625 0 L 60.359375 0 L 60.359375 -21.75 L 41.546875 -21.75 Z M 41.546875 -20.640625 "/></g></g></g><g fill="#000000" fill-opacity="1"><g transform="translate(59.690487, 163.081457)"><g><path d="M 31.03125 -17.390625 C 29.203125 -17.390625 27.78125 -18.828125 27.78125 -20.640625 L 27.78125 -29.59375 L 29.734375 -29.59375 C 29.734375 -26.609375 29.859375 -24.203125 31.671875 -20.765625 L 42.515625 0 L 68.671875 0 L 68.671875 -17.390625 L 64.71875 -17.390625 C 62.953125 -17.390625 61.46875 -18.828125 61.46875 -20.640625 L 61.46875 -24.796875 C 61.46875 -26.609375 62.953125 -28.046875 64.71875 -28.046875 L 68.671875 -28.046875 L 68.671875 -45.4375 L 37.96875 -45.4375 L 37.96875 -28.046875 L 39.265625 -28.046875 C 41.078125 -28.046875 42.515625 -26.609375 42.515625 -24.796875 L 42.515625 -15.84375 L 40.765625 -15.84375 C 40.765625 -18.828125 40.5625 -21.421875 38.8125 -24.671875 L 27.78125 -45.4375 L 1.625 -45.4375 L 1.625 -28.046875 L 5.578125 -28.046875 C 7.40625 -28.046875 8.828125 -26.609375 8.828125 -24.796875 L 8.828125 -20.640625 C 8.828125 -18.828125 7.40625 -17.390625 5.578125 -17.390625 L 1.625 -17.390625 L 1.625 0 L 32.328125 0 L 32.328125 -17.390625 Z M 31.03125 -17.390625 "/></g></g></g><g fill="#000000" fill-opacity="1"><g transform="translate(129.972867, 163.081457)"><g><path d="M 30.703125 -17.390625 C 28.890625 -17.390625 27.453125 -18.828125 27.453125 -20.640625 L 27.453125 -24.796875 C 27.453125 -26.609375 28.890625 -28.046875 30.703125 -28.046875 L 34.328125 -28.046875 L 34.328125 -45.4375 L 1.625 -45.4375 L 1.625 -28.046875 L 5.25 -28.046875 C 7.078125 -28.046875 8.5 -26.609375 8.5 -24.796875 L 8.5 -20.640625 C 8.5 -18.828125 7.078125 -17.390625 5.25 -17.390625 L 1.625 -17.390625 L 1.625 0 L 34.328125 0 L 34.328125 -17.390625 Z M 30.703125 -17.390625 "/></g></g></g><g fill="#000000" fill-opacity="1"><g transform="translate(165.925253, 163.081457)"><g><path d="M 32.1875 0 L 32.1875 -17.390625 L 31.03125 -17.390625 C 29.265625 -17.390625 27.78125 -18.828125 27.78125 -20.640625 L 27.78125 -21.421875 C 27.78125 -24.078125 27.90625 -26.15625 27.390625 -27.90625 L 28.6875 -28.296875 C 29.265625 -26.421875 29.796875 -24.921875 30.953125 -22.0625 L 34.40625 -13.828125 L 38.234375 -13.765625 L 41.671875 -22.0625 C 42.515625 -24.078125 43.484375 -26.359375 44.078125 -28.296875 L 45.375 -27.90625 C 44.84375 -26.15625 44.921875 -24.078125 44.921875 -21.421875 L 44.921875 -20.640625 C 44.921875 -18.828125 43.421875 -17.390625 41.671875 -17.390625 L 40.5625 -17.390625 L 40.5625 0 L 71 0 L 71 -17.390625 L 67.046875 -17.390625 C 65.296875 -17.390625 63.796875 -18.828125 63.796875 -20.640625 L 63.796875 -24.796875 C 63.796875 -26.609375 65.296875 -28.046875 67.046875 -28.046875 L 71 -28.046875 L 71 -45.4375 L 41.921875 -45.4375 L 38.09375 -33.875 C 37.328125 -31.484375 37.125 -28.109375 37.125 -25.96875 L 35.5625 -25.96875 C 35.5625 -28.109375 35.375 -31.484375 34.59375 -33.875 L 30.765625 -45.4375 L 1.625 -45.4375 L 1.625 -28.046875 L 5.578125 -28.046875 C 7.40625 -28.046875 8.828125 -26.609375 8.828125 -24.796875 L 8.828125 -20.640625 C 8.828125 -18.828125 7.40625 -17.390625 5.578125 -17.390625 L 1.625 -17.390625 L 1.625 0 Z M 32.1875 0 "/></g></g></g><g fill="#000000" fill-opacity="1"><g transform="translate(238.543889, 163.081457)"><g><path d="M 41.546875 -20.640625 C 41.546875 -18.828125 40.109375 -17.390625 38.296875 -17.390625 L 27.71875 -17.390625 L 27.71875 -20.90625 L 31.671875 -20.90625 C 33.234375 -20.90625 33.6875 -20.0625 33.6875 -18.6875 L 33.6875 -18.5 L 37 -18.5 L 37 -26.875 L 33.6875 -26.875 L 33.6875 -26.671875 C 33.6875 -25.3125 33.234375 -24.40625 31.671875 -24.40625 L 27.71875 -24.40625 L 27.71875 -28.046875 L 36.859375 -28.046875 C 38.6875 -28.046875 40.109375 -26.609375 40.109375 -24.796875 L 40.109375 -24.078125 L 58.9375 -24.078125 L 58.9375 -45.4375 L 40.109375 -45.4375 L 40.109375 -31.734375 L 38.8125 -31.734375 C 38.8125 -40.3125 34.65625 -45.4375 25.1875 -45.4375 L 1.953125 -45.4375 L 1.953125 -28.046875 L 5.578125 -28.046875 C 7.328125 -28.046875 8.828125 -26.609375 8.828125 -24.796875 L 8.828125 -20.640625 C 8.828125 -18.828125 7.328125 -17.390625 5.578125 -17.390625 L 1.625 -17.390625 L 1.625 0 L 60.359375 0 L 60.359375 -21.75 L 41.546875 -21.75 Z M 41.546875 -20.640625 "/></g></g></g><g fill="#ffffff" fill-opacity="1"><g transform="translate(88.103258, 217.437877)"><g><path d="M 34.65625 0 C 54.203125 0 62.765625 -10.1875 62.765625 -22.71875 C 62.765625 -35.25 54.203125 -45.4375 34.65625 -45.4375 L 1.625 -45.4375 L 1.625 -28.046875 L 5.25 -28.046875 C 7.078125 -28.046875 8.5 -26.609375 8.5 -24.796875 L 8.5 -20.640625 C 8.5 -18.828125 7.078125 -17.390625 5.25 -17.390625 L 1.625 -17.390625 L 1.625 0 Z M 35.109375 -28.109375 C 39.984375 -28.109375 42.703125 -25.703125 42.703125 -22.71875 C 42.703125 -19.734375 39.984375 -17.328125 35.109375 -17.328125 L 27.453125 -17.328125 L 27.453125 -28.109375 Z M 35.109375 -28.109375 "/></g></g></g><g fill="#ffffff" fill-opacity="1"><g transform="translate(151.636448, 217.437877)"><g><path d="M 41.546875 -20.640625 C 41.546875 -18.828125 40.109375 -17.390625 38.296875 -17.390625 L 27.71875 -17.390625 L 27.71875 -20.90625 L 31.671875 -20.90625 C 33.234375 -20.90625 33.6875 -20.0625 33.6875 -18.6875 L 33.6875 -18.5 L 37 -18.5 L 37 -26.875 L 33.6875 -26.875 L 33.6875 -26.671875 C 33.6875 -25.3125 33.234375 -24.40625 31.671875 -24.40625 L 27.71875 -24.40625 L 27.71875 -28.046875 L 36.859375 -28.046875 C 38.6875 -28.046875 40.109375 -26.609375 40.109375 -24.796875 L 40.109375 -24.078125 L 58.9375 -24.078125 L 58.9375 -45.4375 L 40.109375 -45.4375 L 40.109375 -31.734375 L 38.8125 -31.734375 C 38.8125 -40.3125 34.65625 -45.4375 25.1875 -45.4375 L 1.953125 -45.4375 L 1.953125 -28.046875 L 5.578125 -28.046875 C 7.328125 -28.046875 8.828125 -26.609375 8.828125 -24.796875 L 8.828125 -20.640625 C 8.828125 -18.828125 7.328125 -17.390625 5.578125 -17.390625 L 1.625 -17.390625 L 1.625 0 L 60.359375 0 L 60.359375 -21.75 L 41.546875 -21.75 Z M 41.546875 -20.640625 "/></g></g></g><g fill="#ffffff" fill-opacity="1"><g transform="translate(213.287658, 217.437877)"><g><path d="M 34.265625 0 L 34.265625 -17.328125 L 27.203125 -17.328125 L 27.203125 -18.625 C 30.4375 -18.625 31.28125 -18.828125 32.0625 -19.140625 L 35.5625 -20.703125 L 36.15625 -20.703125 L 39.71875 -19.078125 C 40.5625 -18.6875 41.46875 -18.625 44.59375 -18.625 L 44.59375 -17.328125 L 37.515625 -17.328125 L 37.515625 0 L 70.15625 0 L 70.15625 -17.328125 L 68.40625 -17.328125 C 65.171875 -17.328125 62.25 -18.234375 58.21875 -19.46875 L 50.046875 -21.9375 L 50.046875 -23.6875 L 58.21875 -25.96875 C 62.25 -27.0625 64.96875 -28.109375 68.40625 -28.109375 L 70.15625 -28.109375 L 70.15625 -45.4375 L 37.515625 -45.4375 L 37.515625 -28.109375 L 44.59375 -28.109375 L 44.59375 -26.8125 C 41.40625 -26.8125 40.5 -26.609375 39.71875 -26.28125 L 36.15625 -24.734375 L 35.5625 -24.734375 L 32.0625 -26.28125 C 31.28125 -26.609375 30.4375 -26.8125 27.203125 -26.8125 L 27.203125 -28.109375 L 34.265625 -28.109375 L 34.265625 -45.4375 L 1.625 -45.4375 L 1.625 -28.109375 L 3.375 -28.109375 C 6.75 -28.109375 9.609375 -27.0625 13.5625 -25.96875 L 21.75 -23.6875 L 21.75 -21.875 L 13.5625 -19.46875 C 9.609375 -18.296875 6.75 -17.328125 3.375 -17.328125 L 1.625 -17.328125 L 1.625 0 Z M 34.265625 0 "/></g></g></g><g fill="#000000" fill-opacity="1"><g transform="translate(81.457399, 212.784397)"><g><path d="M 34.65625 0 C 54.203125 0 62.765625 -10.1875 62.765625 -22.71875 C 62.765625 -35.25 54.203125 -45.4375 34.65625 -45.4375 L 1.625 -45.4375 L 1.625 -28.046875 L 5.25 -28.046875 C 7.078125 -28.046875 8.5 -26.609375 8.5 -24.796875 L 8.5 -20.640625 C 8.5 -18.828125 7.078125 -17.390625 5.25 -17.390625 L 1.625 -17.390625 L 1.625 0 Z M 35.109375 -28.109375 C 39.984375 -28.109375 42.703125 -25.703125 42.703125 -22.71875 C 42.703125 -19.734375 39.984375 -17.328125 35.109375 -17.328125 L 27.453125 -17.328125 L 27.453125 -28.109375 Z M 35.109375 -28.109375 "/></g></g></g><g fill="#000000" fill-opacity="1"><g transform="translate(144.99059, 212.784397)"><g><path d="M 41.546875 -20.640625 C 41.546875 -18.828125 40.109375 -17.390625 38.296875 -17.390625 L 27.71875 -17.390625 L 27.71875 -20.90625 L 31.671875 -20.90625 C 33.234375 -20.90625 33.6875 -20.0625 33.6875 -18.6875 L 33.6875 -18.5 L 37 -18.5 L 37 -26.875 L 33.6875 -26.875 L 33.6875 -26.671875 C 33.6875 -25.3125 33.234375 -24.40625 31.671875 -24.40625 L 27.71875 -24.40625 L 27.71875 -28.046875 L 36.859375 -28.046875 C 38.6875 -28.046875 40.109375 -26.609375 40.109375 -24.796875 L 40.109375 -24.078125 L 58.9375 -24.078125 L 58.9375 -45.4375 L 40.109375 -45.4375 L 40.109375 -31.734375 L 38.8125 -31.734375 C 38.8125 -40.3125 34.65625 -45.4375 25.1875 -45.4375 L 1.953125 -45.4375 L 1.953125 -28.046875 L 5.578125 -28.046875 C 7.328125 -28.046875 8.828125 -26.609375 8.828125 -24.796875 L 8.828125 -20.640625 C 8.828125 -18.828125 7.328125 -17.390625 5.578125 -17.390625 L 1.625 -17.390625 L 1.625 0 L 60.359375 0 L 60.359375 -21.75 L 41.546875 -21.75 Z M 41.546875 -20.640625 "/></g></g></g><g fill="#000000" fill-opacity="1"><g transform="translate(206.6418, 212.784397)"><g><path d="M 34.265625 0 L 34.265625 -17.328125 L 27.203125 -17.328125 L 27.203125 -18.625 C 30.4375 -18.625 31.28125 -18.828125 32.0625 -19.140625 L 35.5625 -20.703125 L 36.15625 -20.703125 L 39.71875 -19.078125 C 40.5625 -18.6875 41.46875 -18.625 44.59375 -18.625 L 44.59375 -17.328125 L 37.515625 -17.328125 L 37.515625 0 L 70.15625 0 L 70.15625 -17.328125 L 68.40625 -17.328125 C 65.171875 -17.328125 62.25 -18.234375 58.21875 -19.46875 L 50.046875 -21.9375 L 50.046875 -23.6875 L 58.21875 -25.96875 C 62.25 -27.0625 64.96875 -28.109375 68.40625 -28.109375 L 70.15625 -28.109375 L 70.15625 -45.4375 L 37.515625 -45.4375 L 37.515625 -28.109375 L 44.59375 -28.109375 L 44.59375 -26.8125 C 41.40625 -26.8125 40.5 -26.609375 39.71875 -26.28125 L 36.15625 -24.734375 L 35.5625 -24.734375 L 32.0625 -26.28125 C 31.28125 -26.609375 30.4375 -26.8125 27.203125 -26.8125 L 27.203125 -28.109375 L 34.265625 -28.109375 L 34.265625 -45.4375 L 1.625 -45.4375 L 1.625 -28.109375 L 3.375 -28.109375 C 6.75 -28.109375 9.609375 -27.0625 13.5625 -25.96875 L 21.75 -23.6875 L 21.75 -21.875 L 13.5625 -19.46875 C 9.609375 -18.296875 6.75 -17.328125 3.375 -17.328125 L 1.625 -17.328125 L 1.625 0 Z M 34.265625 0 "/></g></g></g></svg>